<svg xmlns="http://www.w3.org/2000/svg" viewBox="0 0 612 792"><path d="M141.24 137.8c3.48 0 6.39 1.206 8.73 3.618 2.34 2.412 3.51 5.406 3.51 8.982 0 3.577-1.17 6.57-3.51 8.982-2.34 2.412-5.25 3.618-8.73 3.618h-10.08v-25.2h10.08zm0 19.656c1.992 0 3.605-.642 4.842-1.926 1.236-1.283 1.854-2.994 1.854-5.13 0-2.136-.618-3.846-1.854-5.13-1.236-1.284-2.85-1.926-4.842-1.926h-4.32v14.112h4.32zM162.48 157.456h10.08V163h-15.84v-25.2h15.66v5.544h-9.9v4.176h9v5.472h-9v4.464zM181.848 163l-8.208-25.2h6.3l5.58 18.54 5.58-18.54h6.3l-8.208 25.2h-7.344zM199.56 137.8h5.76V163h-5.76v-25.2zM221.663 163.504c-3.768 0-6.894-1.254-9.378-3.762s-3.726-5.622-3.726-9.342c0-3.72 1.24-6.833 3.725-9.342 2.484-2.508 5.61-3.762 9.378-3.762 2.255 0 4.344.522 6.264 1.566s3.432 2.466 4.536 4.266l-4.968 2.88c-.552-.983-1.345-1.746-2.376-2.286-1.033-.54-2.185-.81-3.457-.81-2.232 0-4.014.684-5.346 2.052-1.332 1.368-1.998 3.18-1.998 5.436s.665 4.068 1.997 5.436 3.114 2.052 5.346 2.052c1.272 0 2.43-.276 3.474-.828 1.044-.552 1.83-1.308 2.358-2.268l4.968 2.88c-1.08 1.8-2.58 3.222-4.5 4.266s-4.02 1.566-6.3 1.566zM240.923 157.456h10.08V163h-15.84v-25.2h15.66v5.544h-9.9v4.176h9v5.472h-9v4.464z"/></svg>